<mxfile host="app.diagrams.net" modified="2020-05-19T05:23:29.800Z" agent="5.0 (Windows)" etag="3Hv-rebYIacURFrBrrIv" version="13.1.2" type="github">
  <diagram id="NN-2oNC0q-GGf2o-znf5" name="MacCheese">
    <mxGraphModel dx="862" dy="564" grid="1" gridSize="10" guides="1" tooltips="1" connect="1" arrows="1" fold="1" page="1" pageScale="1" pageWidth="1169" pageHeight="826" math="0" shadow="0">
      <root>
        <mxCell id="0" />
        <mxCell id="1" parent="0" />
        <mxCell id="0n4qqfl69VYMj8AW7vFm-10" value="" style="edgeStyle=orthogonalEdgeStyle;rounded=0;orthogonalLoop=1;jettySize=auto;html=1;" parent="1" source="0n4qqfl69VYMj8AW7vFm-1" target="0n4qqfl69VYMj8AW7vFm-2" edge="1">
          <mxGeometry relative="1" as="geometry" />
        </mxCell>
        <mxCell id="0n4qqfl69VYMj8AW7vFm-1" value="Start" style="strokeWidth=2;html=1;shape=mxgraph.flowchart.start_1;whiteSpace=wrap;" parent="1" vertex="1">
          <mxGeometry x="175" y="243" width="100" height="60" as="geometry" />
        </mxCell>
        <mxCell id="0n4qqfl69VYMj8AW7vFm-11" value="" style="edgeStyle=orthogonalEdgeStyle;rounded=0;orthogonalLoop=1;jettySize=auto;html=1;" parent="1" source="0n4qqfl69VYMj8AW7vFm-2" target="0n4qqfl69VYMj8AW7vFm-3" edge="1">
          <mxGeometry relative="1" as="geometry" />
        </mxCell>
        <mxCell id="0n4qqfl69VYMj8AW7vFm-2" value="Retrieve Supplies" style="rounded=1;whiteSpace=wrap;html=1;absoluteArcSize=1;arcSize=14;strokeWidth=2;" parent="1" vertex="1">
          <mxGeometry x="175" y="363" width="100" height="100" as="geometry" />
        </mxCell>
        <mxCell id="0n4qqfl69VYMj8AW7vFm-12" value="" style="edgeStyle=orthogonalEdgeStyle;rounded=0;orthogonalLoop=1;jettySize=auto;html=1;" parent="1" source="0n4qqfl69VYMj8AW7vFm-3" target="0n4qqfl69VYMj8AW7vFm-5" edge="1">
          <mxGeometry relative="1" as="geometry" />
        </mxCell>
        <mxCell id="0n4qqfl69VYMj8AW7vFm-3" value="Boil Water" style="rounded=1;whiteSpace=wrap;html=1;absoluteArcSize=1;arcSize=14;strokeWidth=2;" parent="1" vertex="1">
          <mxGeometry x="355" y="363" width="100" height="100" as="geometry" />
        </mxCell>
        <mxCell id="0n4qqfl69VYMj8AW7vFm-13" value="" style="edgeStyle=orthogonalEdgeStyle;rounded=0;orthogonalLoop=1;jettySize=auto;html=1;" parent="1" source="0n4qqfl69VYMj8AW7vFm-5" edge="1">
          <mxGeometry relative="1" as="geometry">
            <mxPoint x="715" y="413" as="targetPoint" />
          </mxGeometry>
        </mxCell>
        <mxCell id="0n4qqfl69VYMj8AW7vFm-5" value="Cook Noodles" style="rounded=1;whiteSpace=wrap;html=1;absoluteArcSize=1;arcSize=14;strokeWidth=2;" parent="1" vertex="1">
          <mxGeometry x="535" y="363" width="100" height="100" as="geometry" />
        </mxCell>
        <mxCell id="0n4qqfl69VYMj8AW7vFm-14" value="" style="edgeStyle=orthogonalEdgeStyle;rounded=0;orthogonalLoop=1;jettySize=auto;html=1;" parent="1" source="0n4qqfl69VYMj8AW7vFm-7" target="0n4qqfl69VYMj8AW7vFm-8" edge="1">
          <mxGeometry relative="1" as="geometry" />
        </mxCell>
        <mxCell id="0n4qqfl69VYMj8AW7vFm-7" value="Strain Noodles" style="rounded=1;whiteSpace=wrap;html=1;absoluteArcSize=1;arcSize=14;strokeWidth=2;" parent="1" vertex="1">
          <mxGeometry x="719.5" y="363" width="100" height="100" as="geometry" />
        </mxCell>
        <mxCell id="0n4qqfl69VYMj8AW7vFm-15" value="" style="edgeStyle=orthogonalEdgeStyle;rounded=0;orthogonalLoop=1;jettySize=auto;html=1;" parent="1" source="0n4qqfl69VYMj8AW7vFm-8" target="0n4qqfl69VYMj8AW7vFm-9" edge="1">
          <mxGeometry relative="1" as="geometry" />
        </mxCell>
        <mxCell id="0n4qqfl69VYMj8AW7vFm-8" value="Add Ingredients" style="rounded=1;whiteSpace=wrap;html=1;absoluteArcSize=1;arcSize=14;strokeWidth=2;" parent="1" vertex="1">
          <mxGeometry x="895" y="363" width="100" height="100" as="geometry" />
        </mxCell>
        <mxCell id="0n4qqfl69VYMj8AW7vFm-9" value="End" style="strokeWidth=2;html=1;shape=mxgraph.flowchart.start_1;whiteSpace=wrap;" parent="1" vertex="1">
          <mxGeometry x="895" y="523" width="100" height="60" as="geometry" />
        </mxCell>
        <mxCell id="0n4qqfl69VYMj8AW7vFm-16" value="Prepare Macaroni and Cheese" style="text;html=1;align=center;verticalAlign=middle;resizable=0;points=[];autosize=1;fontSize=18;fontStyle=1" parent="1" vertex="1">
          <mxGeometry x="450" y="5" width="270" height="30" as="geometry" />
        </mxCell>
        <mxCell id="0n4qqfl69VYMj8AW7vFm-17" value="Kalpesh Patil" style="text;html=1;align=center;verticalAlign=middle;resizable=0;points=[];autosize=1;fontSize=15;fontStyle=0" parent="1" vertex="1">
          <mxGeometry x="535" y="40" width="100" height="20" as="geometry" />
        </mxCell>
      </root>
    </mxGraphModel>
  </diagram>
</mxfile>
